<?xml version="1.0" encoding="UTF-8"?>
<svg id="Camada_2" xmlns="http://www.w3.org/2000/svg" viewBox="0 0 102.33 78.4">
  <defs>
    <style>
      .cls-1 {
        fill: #fff;
        fill-rule: evenodd;
      }
    </style>
  </defs>
  <g id="Camada_2-2" data-name="Camada_2">
    <g>
      <path class="cls-1" d="M51.12,0c10.8,0,20.6,4.4,27.7,11.5,7.1,7.1,11.5,16.9,11.5,27.7s-4.4,20.6-11.5,27.7-16.9,11.5-27.7,11.5-20.6-4.4-27.7-11.5c-7.1-7.1-11.5-16.9-11.5-27.7s4.4-20.6,11.5-27.7C30.52,4.3,40.32,0,51.12,0h0ZM54.32,68.6v-9.1h-6.4v9.1c-4.8.3-8.7,1.3-10.4,2.6-4.2-1.8-7.9-4.3-11.1-7.5-6.3-6.3-10.2-15-10.2-24.7s3.9-18.3,10.2-24.7,15.1-10.1,24.7-10.1,18.3,3.9,24.7,10.2c6.3,6.3,10.2,15,10.2,24.7s-3.9,18.3-10.2,24.7c-3.1,3.1-6.9,5.7-11.1,7.5-1.6-1.4-5.5-2.4-10.4-2.7h0Z"/>
      <path class="cls-1" d="M100.12,40l-46-1.1,40.7-3,.4-.4c.7-1.2.7-1.8.7-3.2-.7-1.5-.5-1.7-1.5-1.8l-34.9.6,31.7-2.5c.3,0,.5-.5.5-.6,0-.2.4-3-.5-3-11.5-.6-22.4-.9-33.9-1.4l19.2-1.6c.2-.1.3-.1.3-1.6,0-.7,0-1.3-.3-1.4l-29.6-.7,16.8-2.8c.2,0,.3-2.1.3-2.3-.1-.3-.2-.2-.3-.3l-14-.5,11.3-1.3c.3-.2.1-.5.3-1,.1-.6.2-1.1-.3-1.3l-14.9-2.9c.1.1.1,0,0,.1-.2.6-.1,1,.6,1.2l9.8,2.1-15.4.5c-.4,0-.7,2.3-.2,2.3l13.1,1.7-23.8,2.8c-.6.1-.7.6-.6,1.2,0,.6-.3,1.1.3,1.1l20,1.3-30.5.9c-1.1.1-.8,1.6-.9,2.7-.1,1.2-.4,1.9.8,2l21.7.9-32.1,1.3c-.5,0-.6,1.1-.7,2.3,0,1.2-.2,2.3,1.1,2.3h1.2l32.6.1-41.1,2.3c-1.6.1-1.1,1.4-1.1,3-.1,1.8-.6,3.2,1.2,3.3h0l28,1.6-22,1h0c-1.7.1-1.6,1.4-1.8,3.1-.1,1.9-.2,3.5,1.7,3.7l17.4,1.2,24.8,1.7-17.9,2.7c-.3.2,5.7,2.1,5.8,2.6,1.4-.1,2.8-.3,4.1-.4.6-.1,1.2-.1,1.7-.2,12.3-1.1,21.8-1.5,34.8-3.2.5-.2.5-1.4.7-2.8.1-1.6.5-2.9-1.1-3h-.1l-8.7-.8c-1-.1-2.1-.2-3.1-.3l33.6-1.4h0c1.7-.1,1.4-1.7,1.5-3.5.2-1.9.5-3.2-1.4-3.3h0Z"/>
      <g>
        <path class="cls-1" d="M50.32,53.6l27.5,1.6h.1l.6-.1c1.4-.1,1.5-1.4,1.7-2.8,0-1.7-.1-2.9-1.8-3.1h-.1l-4.1-.4-7.7-.6-57.6-4.4h-.7c-1.7.1-2,1.3-2.1,3.1-.1,1.9.2,3.6,2,3.7l17.4,1.2,17.4,1.2,7.4.6h0Z"/>
        <path class="cls-1" d="M99.32,46.8h.7c1.7-.1,2.2-1.7,2.3-3.5.1-1.9-.4-3.2-2.3-3.3l-10.1-.5L2.12,35h-.2c-1.6.1-1.8,1.4-1.9,3-.1,1.8.1,3.3,1.9,3.4h.2l97.2,5.4h0Z"/>
        <path class="cls-1" d="M54.22,59.3l-21-2.9c-.4-.1-.8-.1-.9,0-.2.7-.3,2-.2,2.6.1.3.2.7,1,.8,10.1.6,17.8,1.1,28.8,1.6.3,0,.5-.4.6-.9-3.5-.5-5.6-.8-8.3-1.2h0Z"/>
        <path class="cls-1" d="M9.22,32.4h1.2c28,.8,55.9,2.2,83.8,3.5h.2c1.4-.1,1.5-1.3,1.5-2.7,0-1.5-.1-2.7-1.7-2.7l-85.1-2.7c-1.2,0-1.7.5-1.7,2.2-.1,1.6.6,2.4,1.8,2.4h0Z"/>
        <path class="cls-1" d="M63.52,15.3c.4,0,.6-.3.6-1.1.1-.7,0-1.5-.4-1.5l-5.8-.8c-6.4-.8-15.5-2-16.9-2.1-.3,0-.4.6-.5,1.1-.1.6,0,1.2.5,1.2l12.9,1.7h0l9.6,1.5h0Z"/>
        <path class="cls-1" d="M46.92,7.3l6.2,1.6,7.5,2h.2c.6,0,.7-.5.7-1.1,0-.5,0-1.1-.5-1.3l-14.9-2.7s0-.2-.1,0c-.1.7.2,1.3.9,1.5h0Z"/>
        <path class="cls-1" d="M19.92,25.8l71,2.7c.3,0,.8,0,.8-.5.1-.7.3-1.9,0-2.9-.1-.3-.6-.3-.8-.3l-71.6-3.8c-.8,0-1.4,1.6-1.5,2.2-.1.3.3,2.2.8,2.4.4.2,1,.2,1.3.2h0Z"/>
        <path class="cls-1" d="M75.92,21.8c.2,0,.5.1.6,0,.6-.7.6-1.5.5-2.5,0-.2-.2-.4-.5-.4l-46.4-2.5c-.2,0-.5,0-.5.2-.1.2-.1,1-.1,1.5,0,.4,0,.7.3.7l46.1,3h0Z"/>
      </g>
    </g>
  </g>
</svg>